<?xml version="1.0" encoding="UTF-8"?>
<svg id="Layer_2" data-name="Layer 2" xmlns="http://www.w3.org/2000/svg" viewBox="0 0 395.78 326.64">
  <defs>
    <style>
      .cls-1 {
        fill: #fff;
        stroke: #fff;
        stroke-miterlimit: 10;
        stroke-width: 6px;
      }
    </style>
  </defs>
  <g id="Layer_2-2" data-name="Layer 2">
    <g>
      <g>
        <path class="cls-1" d="M85.64,280.76c-11.08-.96-26.74-8.01-33.77-18.13-6.84-9.84-7.72-22.87-7.72-33.12h1.89c0,9.97.84,22.63,7.38,32.04,6.63,9.54,21.97,16.42,32.38,17.33l-.16,1.88Z"/>
        <path class="cls-1" d="M86.67,323.46l-.99-.04c-26.33-1.17-48.93-11.11-63.63-27.98-14.53-16.67-20.95-39.09-18.56-64.84l.06-1.55,1.89.08-.07,1.6c-2.34,25.27,3.92,47.2,18.1,63.47,14.18,16.27,35.93,25.94,61.31,27.29v-38.34s1.89,0,1.89,0v40.32Z"/>
        <g>
          <path class="cls-1" d="M153.17,186.98c-9.98-9.84-20.25-19.15-32.69-25.82-5.64-3.02-11.61-5.34-17.56-7.66s-11.58-4.96-17.19-7.94v51.36c.65.23,1.28.47,1.94.7,15.09,6.3,25.56,12.77,31.4,19.39,5.84,6.63,8.76,15.65,8.76,27.07s-2.99,19.62-8.96,26.18c-5.97,6.56-14.93,9.84-26.87,9.84-2.18,0-4.26-.1-6.27-.29,0,14.22-.31,28.47.29,42.68,24.49,1.48,44.84-5.2,63.51-20.93,16.67-14.04,25-33.34,25-57.88s-7.12-42.65-21.36-56.7Z"/>
          <path class="cls-1" d="M92.63,323.64c-2.19,0-4.41-.07-6.67-.21l-.85-.05-.04-.85c-.45-10.62-.39-21.43-.33-31.88.02-3.61.04-7.22.04-10.83v-1.03l1.03.09c2.05.19,4.14.29,6.19.29,11.61,0,20.42-3.21,26.18-9.54,5.78-6.35,8.71-14.95,8.71-25.55,0-11.12-2.87-20.02-8.53-26.45-5.72-6.49-16.17-12.93-31.06-19.15-.34-.12-.72-.25-1.1-.39l-1.42-.51v-53.59l1.39.74c5.87,3.12,11.46,5.71,17.09,7.9l.1.04c5.85,2.28,11.91,4.64,17.56,7.67,11.94,6.4,21.79,15.02,32.91,25.98h0c14.36,14.17,21.64,33.47,21.64,57.37s-8.53,44.44-25.34,58.6c-17.19,14.48-35.61,21.35-57.5,21.35ZM86.92,321.6c23.97,1.27,43.69-5.34,61.99-20.76,16.37-13.79,24.67-33.02,24.67-57.16s-7.09-42.23-21.08-56.03c-11-10.85-20.73-19.37-32.47-25.66-5.56-2.98-11.55-5.31-17.35-7.57l-.1-.04c-5.25-2.04-10.47-4.43-15.9-7.26v49.13l.18.07c.37.14.75.27,1.13.41,15.2,6.34,25.88,12.95,31.8,19.66,5.97,6.78,9,16.1,9,27.69s-3.1,20.11-9.2,26.82c-6.13,6.74-15.41,10.15-27.57,10.15-1.77,0-3.55-.07-5.33-.21,0,3.27-.02,6.54-.04,9.82-.06,10.15-.11,20.64.29,30.94Z"/>
        </g>
        <path class="cls-1" d="M85.25,146.37c-13.08-7.64-25.21-15.69-29.93-30.05-4.21-12.81-.33-28.06,9.45-37.08,11.52-10.63,30.48-12.41,44.11-4.15,13.33,8.09,20.84,25.27,17.84,40.87l-1.85-.36c2.85-14.85-4.29-31.21-16.97-38.9-12.93-7.85-30.93-6.16-41.85,3.92-9.25,8.53-12.92,22.97-8.93,35.1,4.51,13.73,16.34,21.56,29.09,29.01l-.95,1.63Z"/>
        <path class="cls-1" d="M85.4,197.8c-29.15-10.45-41.71-20.29-54.7-34.8-11.03-12.31-17.94-27.44-19.98-43.75-1.92-15.33.45-31.01,6.85-45.33,6.14-13.75,15.65-25.37,27.51-33.6,12.76-8.86,28.03-13.55,44.17-13.55,27.05,0,42.25,5.65,60.24,22.38,15.63,14.54,22.95,36,22.37,65.6v.14s-.44,1.32-.44,1.32l-1.79-.6.35-1.04c.55-28.96-6.57-49.9-21.77-64.04-17.58-16.36-32.46-21.88-58.96-21.88-30.93,0-57.08,17.21-69.95,46.03-13.38,29.94-8.47,63.3,12.82,87.06,12.78,14.27,25.16,23.96,53.93,34.28l-.64,1.78Z"/>
      </g>
      <g>
        <line class="cls-1" x1="229.12" y1="46.88" x2="229.12" y2="253.13"/>
        <path class="cls-1" d="M211,299.63c-17.35,0-28.8-1.4-28.97-1.42l.23-1.87c.26.03,26.67,3.25,60.21-.17,30.89-3.15,74.33-12.74,105.81-40.53,28.27-24.95,42.6-60.45,42.6-105.52s-13.83-77.12-41.11-101.55c-31.37-28.09-75.22-38.19-106.48-41.71-33.93-3.82-60.78-.94-61.05-.91l-.21-1.88c.27-.03,27.29-2.93,61.42.91,31.54,3.55,75.81,13.75,107.57,42.18,27.7,24.8,41.74,59.44,41.74,102.96s-14.55,81.62-43.24,106.94c-31.88,28.13-75.73,37.82-106.91,40.99-11.66,1.19-22.46,1.58-31.62,1.58Z"/>
        <path class="cls-1" d="M232.37,254.13c-2.08,0-3.26-.06-3.3-.06h-46.92s0-1.89,0-1.89h46.97c.59.03,53.92,2.46,87.63-29.52,18.39-17.44,27.71-41.89,27.71-72.66,0-41.69-19.36-71.56-57.53-88.76-28.56-12.87-57.53-13.41-57.82-13.42h-.78s-46.18-.01-46.18-.01v-1.89h47.91v.04c5.23.21,31.56,1.82,57.58,13.53,17.02,7.66,30.6,18.09,40.34,30.98,12.18,16.12,18.36,36.15,18.36,59.53,0,31.32-9.52,56.23-28.31,74.04-17.94,17.01-41.18,24.27-57.51,27.36-12.54,2.38-23.06,2.72-28.16,2.72Z"/>
        <g>
          <polygon class="cls-1" points="229.12 46.88 229.12 46.87 182.15 46.87 182.15 253.13 229.12 253.13 229.12 46.88"/>
          <path class="cls-1" d="M230.06,254.07h-48.86V45.93h48.86v208.14ZM183.09,252.19h45.08V47.82h-45.08v204.37Z"/>
        </g>
      </g>
    </g>
  </g>
</svg>