<?xml version="1.0" encoding="UTF-8"?>
<svg id="katman_1" data-name="katman 1" xmlns="http://www.w3.org/2000/svg" viewBox="0 0 463.81 530.72">
  <defs>
    <style>
      .cls-1 {
        fill: #004eca;
        stroke-width: 0px;
      }
    </style>
  </defs>
  <path class="cls-1" d="M320.69,349.23c-4.7-1.45-5.07-7.97.37-10.13,93.26-44.11,87.12-144.23,87.12-144.23C407.8,93.29,333.32-.71,213.31,0,79.55.72-.71,105.93,0,230.3c1.08,217.63,167.37,300.79,219.08,300.42l-.37-86.4c0-13.75,0-24.59,8.31-24.59,0,0,53.5,53.5,112.79,53.5,92.55-.37,124-78.09,124-78.09l-143.15-45.91h.03ZM213.68,282.69c-47.36.37-85.69-37.96-86.03-85.32-.37-47.36,37.96-85.69,85.32-86.03,47.36-.37,85.69,37.96,86.03,85.32,0,47.36-38.33,85.69-85.32,86.03Z"/>
</svg>